<?xml version="1.0" encoding="utf-8" ?>
<svg baseProfile="tiny" height="100%" version="1.2" width="100%" xmlns="http://www.w3.org/2000/svg" xmlns:ev="http://www.w3.org/2001/xml-events" xmlns:xlink="http://www.w3.org/1999/xlink"><defs /><path d="M 265,0 L 265,0 L 264,0 L 263,0 L 262,0 L 261,0 L 260,0 L 259,0 L 258,0 L 257,0 L 256,0 L 255,0 L 254,0 L 253,0 L 252,0 L 251,0 L 250,0 L 249,0 L 248,0 L 247,0 L 246,0 L 245,0 Z" fill="green" stroke="none" /><path d="M 299,3 L 298,3 L 299,2 L 299,3 L 299,3 Z" fill="green" stroke="none" /><path d="M 305,4 L 304,4 L 305,3 L 305,4 L 305,4 Z" fill="green" stroke="none" /><path d="M 196,6 L 195,6 L 196,5 L 196,6 L 196,6 Z" fill="green" stroke="none" /><path d="M 326,9 L 325,9 L 326,8 L 326,9 L 326,9 Z" fill="green" stroke="none" /><path d="M 172,13 L 171,13 L 172,12 L 172,13 L 172,13 Z" fill="green" stroke="none" /><path d="M 164,16 L 163,16 L 164,15 L 164,16 L 164,16 Z" fill="green" stroke="none" /><path d="M 352,18 L 351,18 L 352,17 L 352,18 L 352,18 Z" fill="green" stroke="none" /><path d="M 141,26 L 140,26 L 141,25 L 141,26 L 141,26 Z" fill="green" stroke="none" /><path d="M 394,40 L 393,40 L 394,39 L 394,40 L 394,40 Z" fill="green" stroke="none" /><path d="M 400,44 L 399,44 L 400,43 L 400,44 L 400,44 Z" fill="green" stroke="none" /><path d="M 97,54 L 96,54 L 97,53 L 97,54 L 97,54 Z" fill="green" stroke="none" /><path d="M 415,55 L 414,55 L 415,54 L 415,55 L 415,55 Z" fill="green" stroke="none" /><path d="M 91,59 L 90,59 L 91,58 L 91,59 L 91,59 Z" fill="green" stroke="none" /><path d="M 421,60 L 420,60 L 421,59 L 421,60 L 421,60 Z" fill="green" stroke="none" /><path d="M 82,67 L 81,67 L 82,66 L 82,67 L 82,67 Z" fill="green" stroke="none" /><path d="M 81,68 L 80,68 L 81,67 L 81,68 L 81,68 Z" fill="green" stroke="none" /><path d="M 432,70 L 431,70 L 432,69 L 432,70 L 432,70 Z" fill="green" stroke="none" /><path d="M 433,71 L 432,71 L 433,70 L 433,71 L 433,71 Z" fill="green" stroke="none" /><path d="M 434,72 L 433,72 L 434,71 L 434,72 L 434,72 Z" fill="green" stroke="none" /><path d="M 439,77 L 438,77 L 439,76 L 439,77 L 439,77 Z" fill="green" stroke="none" /><path d="M 440,78 L 439,78 L 440,77 L 440,78 L 440,78 Z" fill="green" stroke="none" /><path d="M 441,79 L 440,79 L 441,78 L 441,79 L 441,79 Z" fill="green" stroke="none" /><path d="M 68,81 L 67,81 L 68,80 L 68,81 L 68,81 Z" fill="green" stroke="none" /><path d="M 67,82 L 66,82 L 67,81 L 67,82 L 67,82 Z" fill="green" stroke="none" /><path d="M 59,91 L 58,91 L 59,90 L 59,91 L 59,91 Z" fill="green" stroke="none" /><path d="M 456,96 L 455,96 L 456,95 L 456,96 L 456,96 Z" fill="green" stroke="none" /><path d="M 52,100 L 51,100 L 52,99 L 52,100 L 52,100 Z" fill="green" stroke="none" /><path d="M 467,111 L 466,111 L 467,110 L 467,111 L 467,111 Z" fill="green" stroke="none" /><path d="M 43,112 L 42,112 L 43,111 L 43,112 L 43,112 Z" fill="green" stroke="none" /><path d="M 41,115 L 40,115 L 41,114 L 41,115 L 41,115 Z" fill="green" stroke="none" /><path d="M 471,117 L 470,117 L 471,116 L 471,117 L 471,117 Z" fill="green" stroke="none" /><path d="M 38,120 L 37,120 L 38,119 L 38,120 L 38,120 Z" fill="green" stroke="none" /><path d="M 130,300 L 129,300 L 128,300 L 127,300 L 126,300 L 125,300 L 124,300 L 123,300 L 122,300 L 121,300 L 120,300 L 119,300 L 118,300 L 117,300 L 116,300 L 115,300 L 114,300 L 113,300 L 112,300 L 111,300 L 110,300 L 109,300 L 108,300 L 107,300 L 106,300 L 105,300 L 104,300 L 103,300 L 102,300 L 101,300 L 100,300 L 99,300 L 98,300 L 97,300 L 96,300 L 95,300 L 94,300 L 93,300 L 93,299 L 93,298 L 94,297 L 94,297 L 94,296 L 94,295 L 95,294 L 95,294 L 96,293 L 96,293 L 96,292 L 97,291 L 97,291 L 97,290 L 98,289 L 98,289 L 98,288 L 99,287 L 99,287 L 99,286 L 100,285 L 100,285 L 101,284 L 101,284 L 101,283 L 102,282 L 102,282 L 102,281 L 103,280 L 103,280 L 103,279 L 104,278 L 104,278 L 104,277 L 105,276 L 105,276 L 105,275 L 106,274 L 106,274 L 107,273 L 107,273 L 107,272 L 108,271 L 108,271 L 108,270 L 109,269 L 109,269 L 109,268 L 110,267 L 110,267 L 110,266 L 111,265 L 111,265 L 111,264 L 112,263 L 112,263 L 112,262 L 113,261 L 113,261 L 113,260 L 114,259 L 114,259 L 114,258 L 115,257 L 115,257 L 116,256 L 116,256 L 116,255 L 117,254 L 117,254 L 117,253 L 118,252 L 118,252 L 118,251 L 119,250 L 119,250 L 119,249 L 120,248 L 120,248 L 120,247 L 121,246 L 121,246 L 121,245 L 122,244 L 122,244 L 122,243 L 123,242 L 123,242 L 123,241 L 124,240 L 124,240 L 125,239 L 125,239 L 125,238 L 126,237 L 126,237 L 126,236 L 127,235 L 127,235 L 127,234 L 128,233 L 128,233 L 128,232 L 129,231 L 129,231 L 130,230 L 130,230 L 130,229 L 131,228 L 131,228 L 131,227 L 132,226 L 132,226 L 132,225 L 133,224 L 133,224 L 133,223 L 134,222 L 134,222 L 134,221 L 135,220 L 135,220 L 135,219 L 136,218 L 136,218 L 137,217 L 137,217 L 137,216 L 138,215 L 138,215 L 138,214 L 139,213 L 139,213 L 139,212 L 140,211 L 140,211 L 140,210 L 141,209 L 141,209 L 141,208 L 142,207 L 142,207 L 143,206 L 143,206 L 143,205 L 144,204 L 144,204 L 144,203 L 145,202 L 145,202 L 145,201 L 146,200 L 146,200 L 146,199 L 147,198 L 147,198 L 147,197 L 148,196 L 148,196 L 149,195 L 149,195 L 149,194 L 150,193 L 150,193 L 150,192 L 151,191 L 151,191 L 151,190 L 152,189 L 152,189 L 152,188 L 153,187 L 153,187 L 154,186 L 154,186 L 154,185 L 155,184 L 155,184 L 155,183 L 156,182 L 156,182 L 156,181 L 157,180 L 157,180 L 157,179 L 158,178 L 158,178 L 158,177 L 159,176 L 159,176 L 160,175 L 160,175 L 160,174 L 161,173 L 161,173 L 161,172 L 162,171 L 162,171 L 162,170 L 163,169 L 163,169 L 163,168 L 164,167 L 164,167 L 164,166 L 165,165 L 165,165 L 165,164 L 166,163 L 166,163 L 167,162 L 167,162 L 167,161 L 168,160 L 168,160 L 168,159 L 169,158 L 169,158 L 169,157 L 170,156 L 170,156 L 170,155 L 171,154 L 171,154 L 171,153 L 172,152 L 172,152 L 172,151 L 173,150 L 173,150 L 174,149 L 174,149 L 174,148 L 175,147 L 175,147 L 175,146 L 176,145 L 176,145 L 176,144 L 177,143 L 177,143 L 178,142 L 178,142 L 179,141 L 179,141 L 179,140 L 180,139 L 180,139 L 181,138 L 181,138 L 182,137 L 182,137 L 183,136 L 183,136 L 184,135 L 184,135 L 185,134 L 186,134 L 186,134 L 187,133 L 187,133 L 188,132 L 189,132 L 189,132 L 190,131 L 191,131 L 191,131 L 192,130 L 193,130 L 193,130 L 194,129 L 195,129 L 196,129 L 196,129 L 197,128 L 198,128 L 199,128 L 200,128 L 201,128 L 202,128 L 202,128 L 203,127 L 204,127 L 205,127 L 206,127 L 206,128 L 207,128 L 208,128 L 209,128 L 210,128 L 211,128 L 212,128 L 212,129 L 213,129 L 214,129 L 215,129 L 215,130 L 216,130 L 217,130 L 217,131 L 218,131 L 219,131 L 219,132 L 220,132 L 221,132 L 221,133 L 222,133 L 222,134 L 223,134 L 223,135 L 224,135 L 225,135 L 225,136 L 226,136 L 226,137 L 227,137 L 227,138 L 228,138 L 228,139 L 228,140 L 229,140 L 229,141 L 230,141 L 230,142 L 231,142 L 231,143 L 231,144 L 232,144 L 232,145 L 232,146 L 233,146 L 233,147 L 234,147 L 234,148 L 234,149 L 235,149 L 235,150 L 235,151 L 236,151 L 236,152 L 236,153 L 237,153 L 237,154 L 237,155 L 238,155 L 238,156 L 239,156 L 239,157 L 239,158 L 240,158 L 240,159 L 240,160 L 241,160 L 241,161 L 241,162 L 242,162 L 242,163 L 242,164 L 242,165 L 242,166 L 242,166 L 241,167 L 241,167 L 240,168 L 240,169 L 240,169 L 239,170 L 239,171 L 239,171 L 238,172 L 238,173 L 238,173 L 237,174 L 237,175 L 237,175 L 236,176 L 236,177 L 236,177 L 235,178 L 235,178 L 234,179 L 234,180 L 234,180 L 233,181 L 233,182 L 233,182 L 232,183 L 232,184 L 232,184 L 231,185 L 231,186 L 231,186 L 230,187 L 230,188 L 230,188 L 229,189 L 229,189 L 228,190 L 228,191 L 228,191 L 227,192 L 227,193 L 227,193 L 226,194 L 226,195 L 226,195 L 225,196 L 225,197 L 225,197 L 224,198 L 224,198 L 223,198 L 222,198 L 222,197 L 221,197 L 221,196 L 221,195 L 220,195 L 220,194 L 220,193 L 219,193 L 219,192 L 218,192 L 218,191 L 218,190 L 218,189 L 217,189 L 217,188 L 216,188 L 216,187 L 216,186 L 215,186 L 215,185 L 215,184 L 214,184 L 214,183 L 214,182 L 213,182 L 213,181 L 213,180 L 212,180 L 212,179 L 212,178 L 211,178 L 211,177 L 211,176 L 210,176 L 210,175 L 210,174 L 209,174 L 209,173 L 209,172 L 208,172 L 208,171 L 208,170 L 207,170 L 207,169 L 207,168 L 206,168 L 206,167 L 205,167 L 205,166 L 205,165 L 204,165 L 204,164 L 203,165 L 203,166 L 203,166 L 202,167 L 202,168 L 202,168 L 201,169 L 201,169 L 200,170 L 200,171 L 200,171 L 199,172 L 199,173 L 199,173 L 198,174 L 198,175 L 198,175 L 197,176 L 197,177 L 197,177 L 196,178 L 196,179 L 196,179 L 195,180 L 195,181 L 195,181 L 194,182 L 194,183 L 194,183 L 193,184 L 193,185 L 193,185 L 192,186 L 192,186 L 191,187 L 191,188 L 191,188 L 190,189 L 190,190 L 190,190 L 189,191 L 189,192 L 189,192 L 188,193 L 188,194 L 188,194 L 187,195 L 187,195 L 186,196 L 186,197 L 186,197 L 185,198 L 185,199 L 185,199 L 184,200 L 184,201 L 184,201 L 183,202 L 183,203 L 183,203 L 182,204 L 182,205 L 182,205 L 181,206 L 181,206 L 180,207 L 180,208 L 180,208 L 179,209 L 179,210 L 179,210 L 178,211 L 178,212 L 178,212 L 177,213 L 177,214 L 177,214 L 176,215 L 176,216 L 176,216 L 175,217 L 175,218 L 175,218 L 174,219 L 174,219 L 173,220 L 173,221 L 173,221 L 172,222 L 172,223 L 172,223 L 171,224 L 171,225 L 171,225 L 170,226 L 170,227 L 170,227 L 169,228 L 169,228 L 168,229 L 168,230 L 168,230 L 167,231 L 167,232 L 167,232 L 166,233 L 166,234 L 166,234 L 165,235 L 165,236 L 165,236 L 164,237 L 164,238 L 164,238 L 163,239 L 163,240 L 163,240 L 162,241 L 162,242 L 162,242 L 161,243 L 161,243 L 160,244 L 160,245 L 160,245 L 159,246 L 159,247 L 159,247 L 158,248 L 158,249 L 158,249 L 157,250 L 157,251 L 157,251 L 156,252 L 156,253 L 156,253 L 155,254 L 155,255 L 155,255 L 154,256 L 154,257 L 154,257 L 153,258 L 153,258 L 152,259 L 152,260 L 152,260 L 151,261 L 151,262 L 151,262 L 150,263 L 150,264 L 150,264 L 149,265 L 149,266 L 149,266 L 148,267 L 148,268 L 148,268 L 147,269 L 147,270 L 147,270 L 146,271 L 146,272 L 146,272 L 145,273 L 145,273 L 144,274 L 144,275 L 144,275 L 143,276 L 143,277 L 143,277 L 142,278 L 142,279 L 142,279 L 141,280 L 141,281 L 141,281 L 140,282 L 140,283 L 140,283 L 139,284 L 139,284 L 138,285 L 138,286 L 138,286 L 137,287 L 137,288 L 137,288 L 136,289 L 136,290 L 136,290 L 135,291 L 135,292 L 135,292 L 134,293 L 134,294 L 134,294 L 133,295 L 133,295 L 132,296 L 132,297 L 132,297 L 131,298 L 131,299 L 131,299 L 130,300 L 130,300 Z" fill="green" stroke="none" /><path d="M 357,367 L 356,367 L 355,367 L 354,367 L 353,367 L 352,367 L 351,367 L 350,367 L 349,367 L 348,367 L 347,367 L 346,367 L 345,367 L 344,367 L 343,367 L 342,367 L 341,367 L 340,367 L 339,367 L 339,366 L 338,366 L 337,366 L 336,366 L 335,366 L 334,366 L 333,366 L 333,365 L 332,365 L 331,365 L 330,365 L 330,364 L 329,364 L 328,364 L 328,363 L 327,363 L 326,363 L 325,363 L 325,362 L 324,362 L 323,362 L 323,361 L 322,361 L 321,361 L 321,360 L 320,360 L 319,360 L 319,359 L 318,359 L 317,359 L 317,358 L 316,358 L 316,357 L 315,357 L 315,356 L 314,356 L 313,356 L 313,355 L 312,355 L 312,354 L 311,354 L 311,353 L 310,353 L 310,352 L 309,352 L 309,351 L 308,351 L 308,350 L 307,350 L 307,349 L 306,349 L 306,348 L 305,348 L 305,347 L 304,347 L 304,346 L 303,346 L 303,345 L 302,345 L 302,344 L 301,344 L 301,343 L 301,342 L 300,342 L 300,341 L 299,341 L 299,340 L 298,340 L 298,339 L 298,338 L 297,338 L 297,337 L 297,336 L 296,336 L 296,335 L 295,335 L 295,334 L 295,333 L 294,333 L 294,332 L 294,331 L 293,331 L 293,330 L 293,329 L 292,329 L 292,328 L 292,327 L 291,327 L 291,326 L 291,325 L 290,325 L 290,324 L 290,323 L 289,323 L 289,322 L 288,322 L 288,321 L 288,320 L 287,320 L 287,319 L 287,318 L 286,318 L 286,317 L 286,316 L 285,316 L 285,315 L 285,314 L 284,314 L 284,313 L 283,313 L 283,312 L 283,311 L 282,311 L 282,310 L 282,309 L 281,309 L 281,308 L 281,307 L 280,307 L 280,306 L 280,305 L 279,305 L 279,304 L 279,303 L 278,303 L 278,302 L 277,302 L 277,301 L 277,300 L 277,299 L 278,298 L 278,298 L 278,297 L 279,296 L 279,296 L 279,295 L 280,294 L 280,294 L 280,293 L 281,292 L 281,292 L 281,291 L 282,290 L 282,290 L 282,289 L 283,288 L 283,288 L 283,287 L 284,286 L 284,286 L 284,285 L 285,284 L 285,284 L 285,283 L 286,282 L 286,282 L 287,281 L 287,281 L 287,280 L 288,279 L 288,279 L 288,278 L 289,277 L 289,277 L 289,276 L 290,275 L 290,275 L 290,274 L 291,273 L 291,273 L 292,272 L 292,272 L 292,271 L 293,270 L 293,270 L 293,269 L 294,268 L 294,268 L 294,267 L 295,266 L 295,266 L 296,265 L 296,266 L 297,266 L 297,267 L 297,268 L 298,268 L 298,269 L 299,269 L 299,270 L 299,271 L 300,271 L 300,272 L 300,273 L 301,273 L 301,274 L 301,275 L 302,275 L 302,276 L 302,277 L 303,277 L 303,278 L 303,279 L 304,279 L 304,280 L 305,280 L 305,281 L 305,282 L 306,282 L 306,283 L 306,284 L 307,284 L 307,285 L 307,286 L 308,286 L 308,287 L 308,288 L 309,288 L 309,289 L 309,290 L 310,290 L 310,291 L 310,292 L 311,292 L 311,293 L 311,294 L 312,294 L 312,295 L 313,295 L 313,296 L 313,297 L 314,297 L 314,298 L 314,299 L 315,299 L 315,300 L 315,301 L 316,301 L 316,302 L 316,303 L 317,303 L 317,304 L 317,305 L 318,305 L 318,306 L 318,307 L 319,307 L 319,308 L 319,309 L 320,309 L 320,310 L 320,311 L 321,311 L 321,312 L 322,312 L 322,313 L 322,314 L 323,314 L 323,315 L 323,316 L 324,316 L 324,317 L 324,318 L 325,318 L 325,319 L 326,319 L 326,320 L 326,321 L 327,321 L 327,322 L 328,322 L 328,323 L 329,323 L 329,324 L 330,324 L 330,325 L 331,325 L 331,326 L 332,326 L 333,326 L 333,327 L 334,327 L 334,328 L 335,328 L 336,328 L 336,329 L 337,329 L 338,329 L 338,330 L 339,330 L 340,330 L 341,330 L 341,331 L 342,331 L 343,331 L 344,331 L 345,331 L 346,331 L 347,331 L 348,331 L 349,331 L 350,331 L 351,331 L 352,331 L 353,331 L 354,331 L 355,331 L 356,331 L 356,331 L 357,330 L 358,330 L 359,330 L 359,330 L 360,329 L 361,329 L 361,329 L 362,328 L 363,328 L 363,328 L 364,327 L 364,327 L 365,326 L 366,326 L 366,326 L 367,325 L 367,325 L 368,324 L 368,324 L 369,323 L 369,323 L 369,322 L 370,321 L 370,321 L 371,320 L 371,320 L 372,319 L 372,319 L 372,318 L 373,317 L 373,317 L 374,316 L 374,316 L 374,315 L 374,314 L 375,313 L 375,313 L 375,312 L 376,311 L 376,311 L 376,310 L 376,309 L 376,308 L 377,307 L 377,307 L 377,306 L 377,305 L 377,304 L 377,303 L 377,302 L 377,301 L 377,300 L 377,299 L 377,298 L 377,297 L 377,296 L 377,295 L 376,295 L 376,294 L 376,293 L 376,292 L 376,291 L 375,291 L 375,290 L 375,289 L 374,289 L 374,288 L 374,287 L 374,286 L 373,286 L 373,285 L 373,284 L 372,284 L 372,283 L 372,282 L 371,282 L 371,281 L 371,280 L 370,280 L 370,279 L 369,279 L 369,278 L 369,277 L 368,277 L 368,276 L 368,275 L 367,275 L 367,274 L 367,273 L 366,273 L 366,272 L 366,271 L 365,271 L 365,270 L 365,269 L 364,269 L 364,268 L 364,267 L 363,267 L 363,266 L 362,266 L 362,265 L 362,264 L 361,264 L 361,263 L 361,262 L 360,262 L 360,261 L 360,260 L 359,260 L 359,259 L 359,258 L 358,258 L 358,257 L 358,256 L 357,256 L 357,255 L 356,255 L 356,254 L 356,253 L 355,253 L 355,252 L 355,251 L 354,251 L 354,250 L 354,249 L 353,249 L 353,248 L 353,247 L 352,247 L 352,246 L 352,245 L 351,245 L 351,244 L 350,244 L 350,243 L 350,242 L 349,242 L 349,241 L 349,240 L 348,240 L 348,239 L 348,238 L 347,238 L 347,237 L 347,236 L 346,236 L 346,235 L 346,234 L 345,234 L 345,233 L 345,232 L 344,232 L 344,231 L 344,230 L 343,230 L 343,229 L 343,228 L 342,228 L 342,227 L 341,227 L 341,226 L 341,225 L 340,225 L 340,224 L 340,223 L 339,223 L 339,222 L 339,221 L 338,221 L 338,220 L 338,219 L 337,219 L 337,218 L 337,217 L 336,217 L 336,216 L 336,215 L 335,215 L 335,214 L 334,214 L 334,213 L 334,212 L 333,212 L 333,211 L 333,210 L 332,210 L 332,209 L 332,208 L 331,208 L 331,207 L 331,206 L 330,206 L 330,205 L 330,204 L 329,204 L 329,203 L 329,202 L 328,202 L 328,201 L 328,200 L 327,200 L 327,199 L 327,198 L 326,198 L 326,197 L 325,197 L 325,196 L 325,195 L 324,195 L 324,194 L 324,193 L 323,193 L 323,192 L 323,191 L 322,191 L 322,190 L 322,189 L 321,189 L 321,188 L 321,187 L 320,187 L 320,186 L 320,185 L 319,185 L 319,184 L 319,183 L 318,183 L 318,182 L 318,181 L 317,181 L 317,180 L 316,180 L 316,179 L 316,178 L 315,178 L 315,177 L 315,176 L 314,176 L 314,175 L 314,174 L 313,174 L 313,173 L 313,172 L 312,172 L 312,171 L 312,170 L 311,170 L 311,169 L 311,168 L 310,168 L 310,167 L 310,166 L 309,166 L 309,165 L 309,164 L 308,164 L 307,165 L 307,166 L 307,166 L 306,167 L 306,168 L 306,168 L 305,169 L 305,169 L 304,170 L 304,171 L 304,171 L 303,172 L 303,173 L 303,173 L 302,174 L 302,175 L 302,175 L 301,176 L 301,177 L 301,177 L 300,178 L 300,179 L 300,179 L 299,180 L 299,181 L 299,181 L 298,182 L 298,183 L 298,183 L 297,184 L 297,184 L 296,185 L 296,186 L 296,186 L 295,187 L 295,188 L 295,188 L 294,189 L 294,190 L 294,190 L 293,191 L 293,192 L 293,192 L 292,193 L 292,194 L 292,194 L 291,195 L 291,195 L 290,196 L 290,197 L 290,198 L 290,198 L 289,199 L 289,199 L 288,200 L 288,201 L 288,201 L 287,202 L 287,203 L 287,203 L 286,204 L 286,205 L 286,205 L 285,206 L 285,207 L 285,207 L 284,208 L 284,209 L 284,209 L 283,210 L 283,210 L 282,211 L 282,212 L 282,212 L 281,213 L 281,214 L 281,214 L 280,215 L 280,216 L 280,216 L 279,217 L 279,218 L 279,218 L 278,219 L 278,220 L 278,220 L 277,221 L 277,221 L 276,222 L 276,223 L 276,223 L 275,224 L 275,225 L 275,225 L 274,226 L 274,227 L 274,227 L 273,228 L 273,229 L 273,229 L 272,230 L 272,231 L 272,231 L 271,232 L 271,233 L 271,233 L 270,234 L 270,235 L 270,235 L 269,236 L 269,237 L 269,237 L 268,238 L 268,238 L 267,239 L 267,240 L 267,240 L 266,241 L 266,242 L 266,242 L 265,243 L 265,244 L 265,244 L 264,245 L 264,246 L 264,246 L 263,247 L 263,248 L 263,248 L 262,249 L 262,249 L 261,250 L 261,251 L 261,251 L 260,252 L 260,253 L 260,253 L 259,254 L 259,255 L 259,255 L 258,256 L 258,256 L 257,257 L 257,258 L 257,258 L 256,259 L 256,260 L 256,260 L 255,261 L 255,262 L 255,262 L 254,263 L 254,264 L 254,264 L 253,265 L 253,266 L 253,266 L 252,267 L 252,267 L 251,268 L 251,269 L 251,269 L 250,270 L 250,271 L 250,271 L 249,272 L 249,273 L 249,273 L 248,274 L 248,275 L 248,275 L 247,276 L 247,276 L 246,277 L 246,278 L 246,278 L 245,279 L 245,280 L 245,280 L 244,281 L 244,282 L 244,282 L 243,283 L 243,284 L 243,284 L 242,285 L 242,286 L 242,286 L 241,287 L 241,288 L 241,288 L 240,289 L 240,289 L 239,290 L 239,291 L 239,291 L 238,292 L 238,293 L 238,293 L 237,294 L 237,295 L 237,295 L 236,296 L 236,297 L 236,297 L 235,298 L 235,299 L 235,299 L 234,300 L 234,301 L 234,301 L 233,302 L 233,302 L 232,303 L 232,304 L 232,304 L 231,305 L 231,306 L 231,306 L 230,307 L 230,308 L 230,308 L 229,309 L 229,310 L 229,310 L 228,311 L 228,312 L 228,312 L 227,313 L 227,313 L 226,314 L 226,315 L 226,315 L 225,316 L 225,317 L 225,317 L 224,318 L 224,319 L 224,319 L 223,320 L 223,321 L 223,321 L 222,322 L 222,323 L 222,323 L 221,324 L 221,325 L 221,325 L 220,326 L 220,326 L 219,327 L 219,328 L 219,328 L 218,329 L 218,330 L 218,330 L 217,331 L 217,332 L 217,332 L 216,333 L 216,334 L 216,334 L 215,335 L 215,336 L 215,336 L 214,337 L 214,337 L 213,338 L 213,339 L 213,339 L 212,340 L 212,341 L 212,341 L 211,342 L 211,343 L 211,343 L 210,344 L 210,345 L 210,345 L 209,346 L 209,347 L 209,347 L 208,348 L 208,349 L 208,349 L 207,350 L 207,351 L 207,351 L 206,352 L 206,353 L 206,353 L 205,354 L 205,354 L 204,355 L 204,356 L 204,357 L 204,357 L 203,358 L 203,358 L 202,359 L 202,360 L 202,360 L 201,361 L 201,362 L 201,362 L 200,363 L 200,364 L 200,364 L 199,365 L 199,366 L 199,366 L 198,367 L 198,367 L 197,367 L 196,367 L 195,367 L 194,367 L 193,367 L 192,367 L 191,367 L 190,367 L 189,367 L 188,367 L 187,367 L 186,367 L 185,367 L 184,367 L 183,367 L 182,367 L 181,367 L 180,367 L 179,367 L 178,367 L 177,367 L 176,367 L 175,367 L 174,367 L 173,367 L 172,367 L 171,367 L 170,367 L 169,367 L 168,367 L 167,367 L 166,367 L 165,367 L 164,367 L 163,367 L 162,367 L 161,367 L 160,367 L 160,366 L 161,365 L 161,365 L 161,364 L 162,363 L 162,363 L 162,362 L 163,361 L 163,361 L 163,360 L 164,359 L 164,359 L 164,358 L 165,357 L 165,357 L 165,356 L 166,355 L 166,355 L 167,354 L 167,354 L 167,353 L 168,352 L 168,352 L 168,351 L 169,350 L 169,350 L 169,349 L 170,348 L 170,348 L 171,347 L 171,347 L 171,346 L 172,345 L 172,345 L 172,344 L 173,343 L 173,343 L 173,342 L 174,341 L 174,341 L 174,340 L 175,339 L 175,339 L 175,338 L 176,337 L 176,337 L 177,336 L 177,336 L 177,335 L 178,334 L 178,334 L 178,333 L 179,332 L 179,332 L 179,331 L 180,330 L 180,330 L 180,329 L 181,328 L 181,328 L 181,327 L 182,326 L 182,326 L 183,325 L 183,325 L 183,324 L 184,323 L 184,323 L 184,322 L 185,321 L 185,321 L 185,320 L 186,319 L 186,319 L 186,318 L 187,317 L 187,317 L 187,316 L 188,315 L 188,315 L 188,314 L 189,313 L 189,313 L 189,312 L 190,311 L 190,311 L 191,310 L 191,310 L 191,309 L 192,308 L 192,308 L 192,307 L 193,306 L 193,306 L 193,305 L 194,304 L 194,304 L 194,303 L 195,302 L 195,302 L 196,301 L 196,301 L 196,300 L 196,299 L 197,298 L 197,298 L 198,297 L 198,297 L 198,296 L 199,295 L 199,295 L 199,294 L 200,293 L 200,293 L 200,292 L 201,291 L 201,291 L 201,290 L 202,289 L 202,289 L 203,288 L 203,288 L 203,287 L 204,286 L 204,286 L 204,285 L 205,284 L 205,284 L 205,283 L 206,282 L 206,282 L 206,281 L 207,280 L 207,280 L 207,279 L 208,278 L 208,278 L 208,277 L 209,276 L 209,276 L 209,275 L 210,274 L 210,274 L 211,273 L 211,273 L 211,272 L 212,271 L 212,271 L 212,270 L 213,269 L 213,269 L 213,268 L 214,267 L 214,267 L 214,266 L 215,265 L 215,265 L 215,264 L 216,263 L 216,263 L 216,262 L 217,261 L 217,261 L 217,260 L 218,259 L 218,259 L 218,258 L 219,257 L 219,257 L 220,256 L 220,256 L 220,255 L 221,254 L 221,254 L 221,253 L 222,252 L 222,252 L 222,251 L 223,250 L 223,250 L 223,249 L 224,248 L 224,248 L 224,247 L 225,246 L 225,246 L 226,245 L 226,245 L 226,244 L 227,243 L 227,243 L 227,242 L 228,241 L 228,241 L 228,240 L 229,239 L 229,239 L 229,238 L 230,237 L 230,237 L 230,236 L 231,235 L 231,235 L 232,234 L 232,234 L 232,233 L 233,232 L 233,232 L 233,231 L 234,230 L 234,230 L 234,229 L 235,228 L 235,228 L 235,227 L 236,226 L 236,226 L 236,225 L 237,224 L 237,224 L 238,223 L 238,223 L 238,222 L 239,221 L 239,221 L 239,220 L 240,219 L 240,219 L 240,218 L 241,217 L 241,217 L 241,216 L 242,215 L 242,215 L 242,214 L 243,213 L 243,213 L 244,212 L 244,212 L 244,211 L 245,210 L 245,210 L 245,209 L 246,208 L 246,208 L 246,207 L 247,206 L 247,206 L 247,205 L 248,204 L 248,204 L 248,203 L 249,202 L 249,202 L 249,201 L 250,200 L 250,200 L 251,199 L 251,199 L 251,198 L 252,197 L 252,197 L 252,196 L 253,195 L 253,195 L 253,194 L 254,193 L 254,193 L 254,192 L 255,191 L 255,191 L 255,190 L 256,189 L 256,189 L 257,188 L 257,188 L 257,187 L 258,186 L 258,186 L 258,185 L 259,184 L 259,184 L 259,183 L 260,182 L 260,182 L 260,181 L 261,180 L 261,180 L 261,179 L 262,178 L 262,178 L 263,177 L 263,177 L 263,176 L 264,175 L 264,175 L 264,174 L 265,173 L 265,173 L 265,172 L 266,171 L 266,171 L 266,170 L 267,169 L 267,169 L 267,168 L 268,167 L 268,167 L 268,166 L 269,165 L 269,165 L 270,164 L 270,164 L 270,163 L 271,162 L 271,162 L 271,161 L 272,160 L 272,160 L 272,159 L 273,158 L 273,158 L 273,157 L 274,156 L 274,156 L 274,155 L 275,154 L 275,154 L 275,153 L 276,152 L 276,152 L 277,151 L 277,151 L 277,150 L 278,149 L 278,149 L 278,148 L 279,147 L 279,147 L 279,146 L 280,145 L 280,145 L 281,144 L 281,144 L 281,143 L 282,142 L 282,142 L 283,141 L 283,141 L 284,140 L 284,140 L 284,139 L 285,138 L 285,138 L 286,137 L 286,137 L 287,136 L 287,136 L 288,135 L 289,135 L 289,135 L 290,134 L 290,134 L 291,133 L 291,133 L 292,132 L 293,132 L 293,132 L 294,131 L 295,131 L 295,131 L 296,130 L 297,130 L 297,130 L 298,129 L 299,129 L 300,129 L 300,129 L 301,128 L 302,128 L 303,128 L 304,128 L 305,128 L 306,128 L 306,128 L 307,127 L 308,127 L 309,127 L 309,128 L 310,128 L 311,128 L 312,128 L 313,128 L 314,128 L 315,128 L 316,128 L 316,129 L 317,129 L 318,129 L 319,129 L 319,130 L 320,130 L 321,130 L 321,131 L 322,131 L 323,131 L 323,132 L 324,132 L 325,132 L 325,133 L 326,133 L 326,134 L 327,134 L 328,134 L 328,135 L 329,135 L 329,136 L 330,136 L 330,137 L 331,137 L 331,138 L 332,138 L 332,139 L 332,140 L 333,140 L 333,141 L 334,141 L 334,142 L 335,142 L 335,143 L 335,144 L 336,144 L 336,145 L 337,145 L 337,146 L 337,147 L 338,147 L 338,148 L 338,149 L 339,149 L 339,150 L 339,151 L 340,151 L 340,152 L 340,153 L 341,153 L 341,154 L 342,154 L 342,155 L 342,156 L 343,156 L 343,157 L 343,158 L 344,158 L 344,159 L 344,160 L 345,160 L 345,161 L 345,162 L 346,162 L 346,163 L 346,164 L 347,164 L 347,165 L 347,166 L 348,166 L 348,167 L 348,168 L 349,168 L 349,169 L 349,170 L 350,170 L 350,171 L 350,172 L 351,172 L 351,173 L 352,173 L 352,174 L 352,175 L 353,175 L 353,176 L 353,177 L 354,177 L 354,178 L 354,179 L 355,179 L 355,180 L 355,181 L 356,181 L 356,182 L 356,183 L 357,183 L 357,184 L 358,184 L 358,185 L 358,186 L 358,187 L 359,187 L 359,188 L 360,188 L 360,189 L 360,190 L 361,190 L 361,191 L 361,192 L 362,192 L 362,193 L 362,194 L 363,194 L 363,195 L 363,196 L 364,196 L 364,197 L 364,198 L 365,198 L 365,199 L 365,200 L 366,200 L 366,201 L 367,201 L 367,202 L 367,203 L 368,203 L 368,204 L 368,205 L 369,205 L 369,206 L 369,207 L 370,207 L 370,208 L 370,209 L 371,209 L 371,210 L 371,211 L 372,211 L 372,212 L 372,213 L 373,213 L 373,214 L 373,215 L 374,215 L 374,216 L 375,216 L 375,217 L 375,218 L 376,218 L 376,219 L 376,220 L 377,220 L 377,221 L 377,222 L 378,222 L 378,223 L 378,224 L 379,224 L 379,225 L 379,226 L 380,226 L 380,227 L 380,228 L 381,228 L 381,229 L 382,229 L 382,230 L 382,231 L 382,232 L 383,232 L 383,233 L 384,233 L 384,234 L 384,235 L 385,235 L 385,236 L 385,237 L 386,237 L 386,238 L 386,239 L 387,239 L 387,240 L 387,241 L 388,241 L 388,242 L 388,243 L 389,243 L 389,244 L 389,245 L 390,245 L 390,246 L 390,247 L 391,247 L 391,248 L 392,248 L 392,249 L 392,250 L 393,250 L 393,251 L 393,252 L 394,252 L 394,253 L 394,254 L 395,254 L 395,255 L 395,256 L 396,256 L 396,257 L 396,258 L 397,258 L 397,259 L 397,260 L 398,260 L 398,261 L 398,262 L 399,262 L 399,263 L 399,264 L 400,264 L 400,265 L 401,265 L 401,266 L 401,267 L 401,268 L 402,268 L 402,269 L 402,270 L 403,270 L 403,271 L 403,272 L 404,272 L 404,273 L 404,274 L 405,274 L 405,275 L 405,276 L 406,276 L 406,277 L 406,278 L 406,279 L 407,279 L 407,280 L 407,281 L 407,282 L 408,282 L 408,283 L 408,284 L 408,285 L 408,286 L 408,287 L 409,287 L 409,288 L 409,289 L 409,290 L 409,291 L 409,292 L 409,293 L 410,293 L 410,294 L 410,295 L 410,296 L 410,297 L 410,298 L 410,299 L 410,300 L 410,301 L 410,302 L 410,303 L 410,304 L 410,305 L 410,306 L 410,307 L 410,308 L 410,308 L 409,309 L 409,310 L 409,311 L 409,312 L 409,313 L 409,314 L 409,314 L 408,315 L 408,316 L 408,317 L 408,318 L 408,319 L 408,320 L 408,320 L 407,321 L 407,322 L 407,322 L 406,323 L 406,324 L 406,325 L 406,326 L 406,326 L 405,327 L 405,328 L 405,328 L 404,329 L 404,330 L 404,331 L 404,331 L 403,332 L 403,333 L 403,333 L 402,334 L 402,335 L 402,335 L 401,336 L 401,337 L 401,337 L 400,338 L 400,338 L 399,339 L 399,340 L 399,340 L 398,341 L 398,341 L 397,342 L 397,342 L 396,343 L 396,344 L 396,344 L 395,345 L 395,345 L 394,346 L 394,346 L 393,347 L 393,347 L 392,348 L 392,348 L 391,349 L 391,349 L 390,350 L 390,350 L 389,351 L 389,351 L 388,352 L 388,352 L 387,353 L 387,353 L 386,354 L 386,354 L 385,355 L 385,355 L 384,356 L 384,356 L 383,356 L 382,357 L 382,357 L 381,358 L 381,358 L 380,358 L 379,359 L 379,359 L 378,360 L 378,360 L 377,360 L 376,361 L 376,361 L 375,361 L 374,362 L 374,362 L 373,362 L 372,362 L 371,363 L 371,363 L 370,363 L 369,363 L 368,364 L 368,364 L 367,364 L 366,365 L 366,365 L 365,365 L 364,365 L 363,366 L 363,366 L 362,366 L 361,366 L 360,366 L 359,366 L 358,366 L 357,367 L 357,367 Z" fill="green" stroke="none" /><path d="M 480,132 L 479,132 L 480,131 L 480,132 L 480,132 Z" fill="green" stroke="none" /><path d="M 493,159 L 492,159 L 493,158 L 493,159 L 493,159 Z" fill="green" stroke="none" /><path d="M 14,169 L 13,169 L 14,168 L 14,169 L 14,169 Z" fill="green" stroke="none" /><path d="M 10,181 L 9,181 L 10,180 L 10,181 L 10,181 Z" fill="green" stroke="none" /><path d="M 505,197 L 504,197 L 505,196 L 505,197 L 505,197 Z" fill="green" stroke="none" /><path d="M 507,207 L 506,207 L 507,206 L 507,207 L 507,207 Z" fill="green" stroke="none" /><path d="M 2,216 L 1,216 L 2,215 L 2,216 L 2,216 Z" fill="green" stroke="none" /><path d="M 509,218 L 508,218 L 509,217 L 509,218 L 509,218 Z" fill="green" stroke="none" /><path d="M 0,235 L 0,236 L 0,236 Z" fill="green" stroke="none" /><path d="M 0,247 L 0,248 L 0,249 L 0,250 L 0,251 L 0,252 L 0,253 L 0,254 L 0,255 L 0,256 L 0,257 L 0,258 L 0,259 L 0,260 L 0,261 L 0,262 L 0,262 Z" fill="green" stroke="none" /><path d="M 2,294 L 1,294 L 2,293 L 2,294 L 2,294 Z" fill="green" stroke="none" /><path d="M 506,309 L 505,309 L 506,308 L 506,309 L 506,309 Z" fill="green" stroke="none" /><path d="M 505,314 L 504,314 L 505,313 L 505,314 L 505,314 Z" fill="green" stroke="none" /><path d="M 503,321 L 502,321 L 503,320 L 503,321 L 503,321 Z" fill="green" stroke="none" /><path d="M 502,325 L 501,325 L 502,324 L 502,325 L 502,325 Z" fill="green" stroke="none" /><path d="M 501,329 L 500,329 L 501,328 L 501,329 L 501,329 Z" fill="green" stroke="none" /><path d="M 497,341 L 496,341 L 497,340 L 497,341 L 497,341 Z" fill="green" stroke="none" /><path d="M 22,361 L 21,361 L 22,360 L 22,361 L 22,361 Z" fill="green" stroke="none" /><path d="M 486,367 L 485,367 L 486,366 L 486,367 L 486,367 Z" fill="green" stroke="none" /><path d="M 485,369 L 484,369 L 485,368 L 485,369 L 485,369 Z" fill="green" stroke="none" /><path d="M 30,377 L 29,377 L 30,376 L 30,377 L 30,377 Z" fill="green" stroke="none" /><path d="M 37,389 L 36,389 L 37,388 L 37,389 L 37,389 Z" fill="green" stroke="none" /><path d="M 39,392 L 38,392 L 39,391 L 39,392 L 39,392 Z" fill="green" stroke="none" /><path d="M 42,397 L 41,397 L 42,396 L 42,397 L 42,397 Z" fill="green" stroke="none" /><path d="M 468,398 L 467,398 L 468,397 L 468,398 L 468,398 Z" fill="green" stroke="none" /><path d="M 47,404 L 46,404 L 47,403 L 47,404 L 47,404 Z" fill="green" stroke="none" /><path d="M 336,405 L 335,405 L 334,405 L 333,405 L 332,405 L 331,405 L 330,405 L 329,405 L 328,405 L 327,405 L 326,405 L 325,405 L 324,405 L 323,405 L 322,405 L 321,405 L 320,405 L 319,405 L 318,405 L 317,405 L 316,405 L 315,405 L 314,405 L 313,405 L 312,405 L 311,405 L 311,404 L 310,404 L 309,404 L 308,404 L 307,404 L 306,404 L 305,404 L 304,404 L 303,404 L 304,403 L 305,403 L 306,403 L 307,403 L 308,403 L 309,403 L 310,403 L 311,403 L 312,403 L 313,403 L 314,403 L 315,403 L 316,403 L 317,403 L 318,403 L 319,403 L 320,403 L 321,403 L 322,403 L 323,403 L 324,403 L 325,403 L 326,403 L 327,403 L 328,403 L 329,403 L 330,403 L 331,403 L 332,403 L 333,403 L 334,403 L 335,403 L 336,403 L 337,403 L 338,403 L 339,403 L 340,403 L 341,403 L 342,403 L 343,403 L 344,403 L 345,403 L 345,404 L 345,404 L 344,404 L 343,404 L 342,404 L 341,404 L 340,404 L 339,404 L 338,404 L 337,404 L 336,405 L 336,405 Z" fill="green" stroke="none" /><path d="M 463,405 L 462,405 L 463,404 L 463,405 L 463,405 Z" fill="green" stroke="none" /><path d="M 460,409 L 459,409 L 460,408 L 460,409 L 460,409 Z" fill="green" stroke="none" /><path d="M 54,413 L 53,413 L 54,412 L 54,413 L 54,413 Z" fill="green" stroke="none" /><path d="M 62,423 L 61,423 L 62,422 L 62,423 L 62,423 Z" fill="green" stroke="none" /><path d="M 447,425 L 446,425 L 447,424 L 447,425 L 447,425 Z" fill="green" stroke="none" /><path d="M 439,433 L 438,433 L 439,432 L 439,433 L 439,433 Z" fill="green" stroke="none" /><path d="M 426,446 L 425,446 L 426,445 L 426,446 L 426,446 Z" fill="green" stroke="none" /><path d="M 418,453 L 417,453 L 418,452 L 418,453 L 418,453 Z" fill="green" stroke="none" /><path d="M 414,456 L 413,456 L 414,455 L 414,456 L 414,456 Z" fill="green" stroke="none" /><path d="M 409,460 L 408,460 L 409,459 L 409,460 L 409,460 Z" fill="green" stroke="none" /><path d="M 405,463 L 404,463 L 405,462 L 405,463 L 405,463 Z" fill="green" stroke="none" /><path d="M 110,466 L 109,466 L 110,465 L 110,466 L 110,466 Z" fill="green" stroke="none" /><path d="M 124,475 L 123,475 L 124,474 L 124,475 L 124,475 Z" fill="green" stroke="none" /><path d="M 353,492 L 352,492 L 353,491 L 353,492 L 353,492 Z" fill="green" stroke="none" /><path d="M 348,494 L 347,494 L 348,493 L 348,494 L 348,494 Z" fill="green" stroke="none" /><path d="M 340,497 L 339,497 L 340,496 L 340,497 L 340,497 Z" fill="green" stroke="none" /><path d="M 177,499 L 176,499 L 177,498 L 177,499 L 177,499 Z" fill="green" stroke="none" /><path d="M 183,501 L 182,501 L 183,500 L 183,501 L 183,501 Z" fill="green" stroke="none" /><path d="M 324,502 L 323,502 L 324,501 L 324,502 L 324,502 Z" fill="green" stroke="none" /><path d="M 209,507 L 208,507 L 209,506 L 209,507 L 209,507 Z" fill="green" stroke="none" /></svg>